# xmcd
#
# Track frame offsets:
#	150
#	19205
#	32793
#	54393
#	68195
#	82623
#	105320
#	125208
#	140145
#	155208
#	172433
#	180658
#
# Disc length: 2743 seconds
#
# Revision: 5
# Processed by: cddbd v1.5.2PL0 Copyright (c) Steve Scherf et al.
# Submitted via: audiograbber 1.83.01
#
DISCID=ab0ab50c
DTITLE=Kimmie Rhodes - Angels Get The Blues
DYEAR=1989
DGENRE=Country
TTITLE0=Angels Get The Blues
TTITLE1=Invitation To The Blues (with Johnny Rodriguez)
TTITLE2=Just One Love (with Joe Ely)
TTITLE3=It'll Be Me
TTITLE4=I Know One
TTITLE5=Little Jole Blon
TTITLE6=I Just Drove By
TTITLE7=Baby
TTITLE8=Sugar Bee
TTITLE9=Bad Times For Me
TTITLE10=Caterpillar
TTITLE11=Trying For My Heart
EXTD=
EXTT0=
EXTT1=
EXTT2=
EXTT3=
EXTT4=
EXTT5=
EXTT6=
EXTT7=
EXTT8=
EXTT9=
EXTT10=
EXTT11=
PLAYORDER=
